# xmcd CD database file
# Copyright (C) 1993-1998 Ti Kan
#
# Track frame offsets:
# 150
# 20147
# 42612
# 64792
# 85765
# 101410
# 110870
# 136072
# 143110
# 160397
# 178622
# 191945
# 209475
#
# Disc length: 3052 seconds
# Revision: 0
# Processed by: cddbd v1.4b41PL1 Copyright (c) Steve Scherf et al.
# Submitted via: CDSpectrumPro v3.2.328
#
DISCID=c40bea0d
DTITLE=M.C. BREED - FlatLine
DYEAR=1900
DGENRE=
TTITLE0=Floatin Through the Cosmos
TTITLE1=My Dove
TTITLE2=Dreamin'
TTITLE3=Guerrilla Pimpin'
TTITLE4=Rule # 1
TTITLE5=Cafe' Interlude
TTITLE6=Conclusions
TTITLE7=Lakeside 'Lude
TTITLE8=Dear Lord
TTITLE9=Whatcha mad at?
TTITLE10=Flatline
TTITLE11=Duece shot
TTITLE12=Break fo dawn
EXTD=
EXTT0=
EXTT1=
EXTT2=
EXTT3=
EXTT4=
EXTT5=
EXTT6=
EXTT7=
EXTT8=
EXTT9=
EXTT10=
EXTT11=
EXTT12=
PLAYORDER=
